HIERARCHY
ROOT hip
{
	OFFSET 0.000000 0.000000 0.000000
	CHANNELS 6 Xposition Yposition Zposition Xrotation Yrotation Zrotation
	JOINT mSpine1
	{
		OFFSET 0.0000 3.3100 -0.0000
		CHANNELS 3 Xrotation Yrotation Zrotation
		JOINT mSpine2
		{
			OFFSET 0.0000 -3.3100 0.0000
			CHANNELS 3 Xrotation Yrotation Zrotation
			JOINT abdomen
			{
				OFFSET 0.0000 3.3100 -0.0000
				CHANNELS 3 Xrotation Yrotation Zrotation
				JOINT mSpine3
				{
					OFFSET 0.0000 8.0660 -0.6050
					CHANNELS 3 Xrotation Yrotation Zrotation
					JOINT mSpine4
					{
						OFFSET 0.0000 -8.0660 0.6050
						CHANNELS 3 Xrotation Yrotation Zrotation
						JOINT chest
						{
							OFFSET 0.0000 8.0660 -0.6050
							CHANNELS 3 Xrotation Yrotation Zrotation
							JOINT neck
							{
								OFFSET 0.0000 9.8861 -0.3705
								CHANNELS 3 Xrotation Yrotation Zrotation
								JOINT head
								{
									OFFSET 0.0000 2.9776 -0.0000
									CHANNELS 3 Xrotation Yrotation Zrotation
									End Site
									{
										OFFSET 0.0000 3.1102 -0.0000
									}
								}
							}
							JOINT lCollar
							{
								OFFSET 2.8220 6.5116 -0.8157
								CHANNELS 3 Xrotation Yrotation Zrotation
								JOINT lShldr
								{
									OFFSET 3.1102 0.0000 0.0000
									CHANNELS 3 Xrotation Yrotation Zrotation
									JOINT lForeArm
									{
										OFFSET 10.9354 0.0000 0.0000
										CHANNELS 3 Xrotation Yrotation Zrotation
										JOINT lHand
										{
											OFFSET 9.5165 0.0000 0.0000
											CHANNELS 3 Xrotation Yrotation Zrotation
											JOINT mHandMiddle1Left
											{
												OFFSET 3.9764 0.5905 0.5118
												CHANNELS 3 Xrotation Yrotation Zrotation
												JOINT mHandMiddle2Left
												{
													OFFSET 1.5748 -0.2362 -0.0394
													CHANNELS 3 Xrotation Yrotation Zrotation
													JOINT mHandMiddle3Left
													{
														OFFSET 1.9291 -0.3150 -0.0394
														CHANNELS 3 Xrotation Yrotation Zrotation
														End Site
														{
															OFFSET 1.2992 -0.2362 -0.0787
														}
													}
												}
											}
											JOINT mHandIndex1Left
											{
												OFFSET 3.8189 0.5905 1.4961
												CHANNELS 3 Xrotation Yrotation Zrotation
												JOINT mHandIndex2Left
												{
													OFFSET 1.4173 -0.2362 0.6693
													CHANNELS 3 Xrotation Yrotation Zrotation
													JOINT mHandIndex3Left
													{
														OFFSET 1.2598 -0.2362 0.5512
														CHANNELS 3 Xrotation Yrotation Zrotation
														End Site
														{
															OFFSET 0.9843 -0.1575 0.4331
														}
													}
												}
											}
											JOINT mHandRing1Left
											{
												OFFSET 3.8976 0.3543 -0.3937
												CHANNELS 3 Xrotation Yrotation Zrotation
												JOINT mHandRing2Left
												{
													OFFSET 1.4961 -0.3150 -0.5118
													CHANNELS 3 Xrotation Yrotation Zrotation
													JOINT mHandRing3Left
													{
														OFFSET 1.5748 -0.3543 -0.5118
														CHANNELS 3 Xrotation Yrotation Zrotation
														End Site
														{
															OFFSET 1.1024 -0.2362 -0.3937
														}
													}
												}
											}
											JOINT mHandPinky1Left
											{
												OFFSET 3.7402 0.1181 -1.2205
												CHANNELS 3 Xrotation Yrotation Zrotation
												JOINT mHandPinky2Left
												{
													OFFSET 0.9842 -0.2362 -0.9449
													CHANNELS 3 Xrotation Yrotation Zrotation
													JOINT mHandPinky3Left
													{
														OFFSET 0.7087 -0.1575 -0.5906
														CHANNELS 3 Xrotation Yrotation Zrotation
														End Site
														{
															OFFSET 0.6299 -0.1575 -0.5118
														}
													}
												}
											}
											JOINT mHandThumb1Left
											{
												OFFSET 1.0236 0.1575 1.2205
												CHANNELS 3 Xrotation Yrotation Zrotation
												JOINT mHandThumb2Left
												{
													OFFSET 1.2598 -0.0394 1.1024
													CHANNELS 3 Xrotation Yrotation Zrotation
													JOINT mHandThumb3Left
													{
														OFFSET 1.2205 -0.0394 0.9055
														CHANNELS 3 Xrotation Yrotation Zrotation
														End Site
														{
															OFFSET 0.9843 0.0000 0.5906
														}
													}
												}
											}
										}
									}
								}
							}
							JOINT rCollar
							{
								OFFSET -2.8346 6.5116 -0.8157
								CHANNELS 3 Xrotation Yrotation Zrotation
								JOINT rShldr
								{
									OFFSET -3.1267 0.0000 0.0000
									CHANNELS 3 Xrotation Yrotation Zrotation
									JOINT rForeArm
									{
										OFFSET -10.9354 0.0000 0.0000
										CHANNELS 3 Xrotation Yrotation Zrotation
										JOINT rHand
										{
											OFFSET -9.5236 0.0000 0.0000
											CHANNELS 3 Xrotation Yrotation Zrotation
											JOINT mHandMiddle1Right
											{
												OFFSET -3.9764 0.5905 0.5118
												CHANNELS 3 Xrotation Yrotation Zrotation
												JOINT mHandMiddle2Right
												{
													OFFSET -1.5748 -0.2362 -0.0394
													CHANNELS 3 Xrotation Yrotation Zrotation
													JOINT mHandMiddle3Right
													{
														OFFSET -1.9291 -0.3150 -0.0394
														CHANNELS 3 Xrotation Yrotation Zrotation
														End Site
														{
															OFFSET -1.2992 -0.2362 -0.0787
														}
													}
												}
											}
											JOINT mHandIndex1Right
											{
												OFFSET -3.8189 0.5905 1.4961
												CHANNELS 3 Xrotation Yrotation Zrotation
												JOINT mHandIndex2Right
												{
													OFFSET -1.4173 -0.2362 0.6693
													CHANNELS 3 Xrotation Yrotation Zrotation
													JOINT mHandIndex3Right
													{
														OFFSET -1.2598 -0.2362 0.5512
														CHANNELS 3 Xrotation Yrotation Zrotation
														End Site
														{
															OFFSET -0.9843 -0.1575 0.4331
														}
													}
												}
											}
											JOINT mHandRing1Right
											{
												OFFSET -3.8976 0.3543 -0.3937
												CHANNELS 3 Xrotation Yrotation Zrotation
												JOINT mHandRing2Right
												{
													OFFSET -1.4961 -0.3150 -0.5118
													CHANNELS 3 Xrotation Yrotation Zrotation
													JOINT mHandRing3Right
													{
														OFFSET -1.5748 -0.3543 -0.5118
														CHANNELS 3 Xrotation Yrotation Zrotation
														End Site
														{
															OFFSET -1.1024 -0.2362 -0.3937
														}
													}
												}
											}
											JOINT mHandPinky1Right
											{
												OFFSET -3.7401 0.1181 -1.2205
												CHANNELS 3 Xrotation Yrotation Zrotation
												JOINT mHandPinky2Right
												{
													OFFSET -0.9842 -0.2362 -0.9449
													CHANNELS 3 Xrotation Yrotation Zrotation
													JOINT mHandPinky3Right
													{
														OFFSET -0.7087 -0.1575 -0.5906
														CHANNELS 3 Xrotation Yrotation Zrotation
														End Site
														{
															OFFSET -0.6299 -0.1575 -0.5118
														}
													}
												}
											}
											JOINT mHandThumb1Right
											{
												OFFSET -1.0236 0.1575 1.2205
												CHANNELS 3 Xrotation Yrotation Zrotation
												JOINT mHandThumb2Right
												{
													OFFSET -1.2598 -0.0394 1.1024
													CHANNELS 3 Xrotation Yrotation Zrotation
													JOINT mHandThumb3Right
													{
														OFFSET -1.2205 -0.0394 0.9055
														CHANNELS 3 Xrotation Yrotation Zrotation
														End Site
														{
															OFFSET -0.9843 0.0000 0.5906
														}
													}
												}
											}
										}
									}
								}
							}
						}
					}
				}
			}
		}
	}
	JOINT rThigh
	{
		OFFSET -5.0711 -1.6176 1.3236
		CHANNELS 3 Xrotation Yrotation Zrotation
		JOINT rShin
		{
			OFFSET 1.9148 -19.3276 -0.0307
			CHANNELS 3 Xrotation Yrotation Zrotation
			JOINT rFoot
			{
				OFFSET 0.0000 -18.4446 -1.1366
				CHANNELS 3 Xrotation Yrotation Zrotation
				End Site
				{
					OFFSET 0.0000 -2.3873 4.4077
				}
			}
		}
	}
	JOINT lThigh
	{
		OFFSET 4.9907 -1.6141 1.3290
		CHANNELS 3 Xrotation Yrotation Zrotation
		JOINT lShin
		{
			OFFSET -1.7940 -19.3328 -0.0349
			CHANNELS 3 Xrotation Yrotation Zrotation
			JOINT lFoot
			{
				OFFSET 0.0543 -18.4428 -1.1373
				CHANNELS 3 Xrotation Yrotation Zrotation
				End Site
				{
					OFFSET 0.0000 -2.3866 4.4077
				}
			}
		}
	}
}
MOTION
Frames: 6
Frame Time: 0.041667
0.0000 42.0084 0.0000 0.0000 0.0000 0.0000 0.0000 0.0000 0.0000 0.0000 0.0000 0.0000 0.0000 0.0000 0.0000 0.0000 0.0000 0.0000 0.0000 0.0000 0.0000 0.0000 0.0000 0.0000 0.0000 0.0000 0.0000 0.0000 0.0000 0.0000 0.0000 0.0000 0.0000 0.0000 0.0000 0.0000 0.0000 0.0000 0.0000 0.0000 0.0000 0.0000 0.0000 0.0000 0.0000 0.0000 0.0000 0.0000 0.0000 0.0000 0.0000 0.0000 0.0000 0.0000 0.0000 0.0000 0.0000 0.0000 0.0000 0.0000 0.0000 0.0000 0.0000 0.0000 0.0000 0.0000 0.0000 0.0000 0.0000 0.0000 0.0000 0.0000 0.0000 0.0000 0.0000 0.0000 0.0000 0.0000 0.0000 0.0000 0.0000 0.0000 0.0000 0.0000 0.0000 0.0000 0.0000 0.0000 0.0000 0.0000 0.0000 0.0000 0.0000 0.0000 0.0000 0.0000 0.0000 0.0000 0.0000 0.0000 0.0000 0.0000 0.0000 0.0000 0.0000 0.0000 0.0000 0.0000 0.0000 0.0000 0.0000 0.0000 0.0000 0.0000 0.0000 0.0000 0.0000 0.0000 0.0000 0.0000 0.0000 0.0000 0.0000 0.0000 0.0000 0.0000 0.0000 0.0000 0.0000 0.0000 0.0000 0.0000 0.0000 0.0000 0.0000 0.0000 0.0000 0.0000 0.0000 0.0000 0.0000 0.0000 0.0000 0.0000 0.0000 0.0000 0.0000 0.0000 0.0000 0.0000 0.0000 0.0000 0.0000 0.0000 0.0000 0.0000 0.0000 0.0000 0.0000 0.0000 0.0000 0.0000 
0.0000 42.0084 0.0000 0.0000 0.0000 0.0000 0.0000 0.0000 0.0000 0.0000 0.0000 0.0000 0.0000 0.0000 0.0000 0.0000 0.0000 0.0000 0.0000 0.0000 0.0000 0.0000 0.0000 0.0000 0.0000 0.0000 0.0000 0.0000 0.0000 0.0000 0.0000 0.0000 0.0000 0.0000 0.0000 -81.4299 0.0000 0.0000 0.0000 0.0000 0.0000 0.0000 -1.1411 -2.4608 -16.0008 -1.0794 -2.3893 -16.0111 -1.8044 -2.4465 -15.9534 15.3424 17.9634 -20.5631 4.8235 -4.4746 -13.6756 5.1261 -3.9816 -13.7272 -9.4847 -15.3157 -13.4993 -5.6063 -1.6640 -14.9284 -5.9467 -1.4312 -14.8132 -17.2588 -35.2088 -10.5970 -9.4592 -0.2242 -11.0313 -9.3749 -0.3936 -11.1120 6.1383 7.2771 -6.6484 5.6561 7.2880 -7.0435 4.6435 7.7693 -7.2299 0.0000 0.0000 0.0000 0.0000 0.0000 82.7905 0.0000 0.0000 0.0000 0.0000 0.0000 0.0000 -0.9482 3.4261 7.7323 -0.4588 1.2388 8.0405 -0.8215 1.2926 8.0074 11.6435 -21.3584 13.3980 2.5996 2.1453 7.0380 2.7404 1.8834 7.0629 -6.5636 20.3717 4.9181 -2.7720 1.0218 7.5053 -2.9517 0.9141 7.4492 -9.9166 42.6581 2.1359 -4.7134 0.3398 5.4985 -4.6672 0.4239 5.5353 4.1650 -7.1017 4.2582 4.3894 -5.8171 5.4988 3.5825 -6.1881 5.6523 0.0000 0.0000 0.0000 0.0000 0.0000 0.0000 0.0000 0.0000 0.0000 0.0000 0.0000 0.0000 0.0000 0.0000 0.0000 0.0000 0.0000 0.0000 
0.0000 42.0060 -0.0120 0.0505 0.0000 0.0000 0.0000 0.0000 0.0000 0.0000 0.0000 0.0000 0.0626 0.0000 0.0000 0.0000 0.0000 0.0000 0.0000 0.0000 0.0000 0.0185 0.0000 0.0000 0.0000 0.0000 0.0000 0.0000 0.0000 0.0000 0.0000 0.0000 0.0043 -0.1095 -0.0380 -81.4162 0.0000 0.0000 0.0000 0.0165 0.0085 0.1653 -1.1396 -2.4583 -15.9856 -1.0781 -2.3872 -15.9958 -1.8024 -2.4445 -15.9382 15.3361 17.9712 -20.5497 4.8194 -4.4698 -13.6626 5.1217 -3.9772 -13.7142 -9.4774 -15.3164 -13.4838 -5.6008 -1.6632 -14.9141 -5.9409 -1.4306 -14.7990 -17.2436 -35.2119 -10.5814 -9.4501 -0.2249 -11.0207 -9.3660 -0.3941 -11.1014 6.1383 7.2771 -6.6484 5.6561 7.2881 -7.0435 4.6435 7.7693 -7.2299 0.0000 0.0000 -0.0087 -0.1118 0.0371 82.7769 0.0000 0.0000 0.0000 0.0118 -0.0074 -0.1624 -0.9476 3.4252 7.7262 -0.4584 1.2378 8.0344 -0.8208 1.2917 8.0013 11.6405 -21.3610 13.3922 2.5977 2.1436 7.0328 2.7384 1.8819 7.0577 -6.5603 20.3712 4.9118 -2.7699 1.0212 7.4997 -2.9494 0.9135 7.4436 -9.9096 42.6585 2.1287 -4.7100 0.3397 5.4944 -4.6638 0.4238 5.5312 4.1650 -7.1017 4.2583 4.3894 -5.8170 5.4988 3.5825 -6.1881 5.6523 -0.3243 0.0000 0.0141 0.5190 0.0000 0.0000 -0.3524 0.0019 0.0005 -0.3243 0.0000 -0.0141 0.5299 0.0000 0.0015 -0.3331 -0.0068 -0.0030 
0.0000 41.9861 -0.0519 0.2215 0.0000 0.0000 0.0000 0.0000 0.0000 0.0000 0.0000 0.0000 0.2802 0.0000 0.0000 0.0000 0.0000 0.0000 0.0000 0.0000 0.0000 0.0825 0.0000 0.0000 0.0000 0.0000 0.0000 0.0000 0.0000 0.0000 0.0000 0.0000 0.0197 -0.4899 -0.1703 -81.3693 0.0000 0.0000 0.0000 0.0736 0.0386 0.7411 -1.1352 -2.4509 -15.9396 -1.0740 -2.3808 -15.9497 -1.7963 -2.4382 -15.8922 15.3170 17.9946 -20.5096 4.8071 -4.4553 -13.6236 5.1083 -3.9640 -13.6751 -9.4552 -15.3184 -13.4370 -5.5841 -1.6605 -14.8710 -5.9234 -1.4287 -14.7562 -17.1978 -35.2212 -10.5346 -9.4229 -0.2268 -10.9890 -9.3390 -0.3956 -11.0694 6.1383 7.2771 -6.6484 5.6562 7.2880 -7.0435 4.6435 7.7693 -7.2299 0.0000 0.0000 -0.0393 -0.5001 0.1661 82.7300 0.0000 0.0000 0.0000 0.0526 -0.0336 -0.7279 -0.9459 3.4223 7.7079 -0.4572 1.2351 8.0162 -0.8187 1.2889 7.9832 11.6312 -21.3688 13.3749 2.5922 2.1384 7.0170 2.7325 1.8773 7.0418 -6.5503 20.3697 4.8927 -2.7635 1.0193 7.4829 -2.9427 0.9119 7.4269 -9.8884 42.6595 2.1073 -4.6995 0.3395 5.4822 -4.6534 0.4233 5.5190 4.1650 -7.1017 4.2583 4.3894 -5.8170 5.4988 3.5825 -6.1881 5.6522 -1.4300 -0.0007 0.0621 2.2796 0.0000 0.0000 -1.5278 0.0081 0.0022 -1.4300 0.0008 -0.0622 2.3282 0.0000 0.0066 -1.4450 -0.0293 -0.0131 
0.0000 41.9235 -0.1217 0.5305 0.0000 0.0000 0.0000 0.0000 0.0000 0.0000 0.0000 0.0000 0.6859 0.0000 0.0000 0.0000 0.0000 0.0000 0.0000 0.0000 0.0000 0.2008 0.0000 0.0000 0.0000 0.0000 0.0000 0.0000 0.0000 0.0000 0.0000 0.0000 0.0493 -1.1994 -0.4176 -81.2839 0.0000 0.0000 0.0000 0.1798 0.0963 1.8184 -1.1277 -2.4385 -15.8627 -1.0673 -2.3701 -15.8726 -1.7860 -2.4277 -15.8153 15.2850 18.0337 -20.4423 4.7863 -4.4310 -13.5583 5.0859 -3.9419 -13.6095 -9.4181 -15.3218 -13.3587 -5.5562 -1.6560 -14.7987 -5.8940 -1.4255 -14.6846 -17.1211 -35.2366 -10.4562 -9.3774 -0.2301 -10.9359 -9.2937 -0.3980 -11.0158 6.1383 7.2771 -6.6484 5.6561 7.2880 -7.0435 4.6435 7.7693 -7.2299 0.0000 0.0000 -0.0971 -1.2239 0.4068 82.6445 0.0000 0.0000 0.0000 0.1287 -0.0837 -1.7857 -0.9431 3.4174 7.6774 -0.4551 1.2306 7.9857 -0.8153 1.2842 7.9528 11.6157 -21.3818 13.3460 2.5829 2.1298 6.9906 2.7226 1.8695 7.0153 -6.5337 20.3672 4.8608 -2.7529 1.0162 7.4547 -2.9315 0.9092 7.3990 -9.8529 42.6613 2.0713 -4.6820 0.3391 5.4618 -4.6361 0.4226 5.4984 4.1650 -7.1017 4.2583 4.3894 -5.8170 5.4988 3.5825 -6.1881 5.6523 -3.4577 -0.0044 0.1501 5.5064 0.0000 0.0000 -3.6153 0.0191 0.0055 -3.4577 0.0045 -0.1502 5.6184 0.0006 0.0163 -3.4215 -0.0691 -0.0323 
0.0000 41.7950 -0.2160 0.9632 0.0000 0.0000 0.0000 0.0000 0.0000 0.0000 0.0000 0.0000 1.2719 0.0000 0.0000 0.0000 0.0000 0.0000 0.0000 0.0000 0.0000 0.3701 0.0000 0.0000 0.0000 0.0000 0.0000 0.0000 0.0000 0.0000 0.0000 0.0000 0.0935 -2.2257 -0.7770 -81.1651 0.0000 0.0000 0.0000 0.3320 0.1838 3.3832 -1.1172 -2.4211 -15.7547 -1.0578 -2.3551 -15.7643 -1.7717 -2.4129 -15.7072 15.2401 18.0886 -20.3477 4.7572 -4.3970 -13.4665 5.0543 -3.9109 -13.5173 -9.3659 -15.3265 -13.2487 -5.5170 -1.6496 -14.6973 -5.8528 -1.4210 -14.5839 -17.0132 -35.2582 -10.3461 -9.3134 -0.2346 -10.8612 -9.2302 -0.4014 -10.9405 6.1383 7.2771 -6.6484 5.6561 7.2881 -7.0435 4.6435 7.7693 -7.2299 0.0000 0.0000 -0.1818 -2.2701 0.7559 82.5258 0.0000 0.0000 0.0000 0.2379 -0.1588 -3.3214 -0.9392 3.4106 7.6344 -0.4522 1.2241 7.9428 -0.8104 1.2777 7.9101 11.5940 -21.4001 13.3052 2.5698 2.1176 6.9535 2.7087 1.8587 6.9781 -6.5103 20.3637 4.8159 -2.7380 1.0117 7.4151 -2.9157 0.9054 7.3597 -9.8030 42.6638 2.0207 -4.6574 0.3384 5.4331 -4.6117 0.4215 5.4695 4.1650 -7.1017 4.2583 4.3894 -5.8170 5.4988 3.5825 -6.1881 5.6523 -6.3552 -0.0151 0.2756 10.1386 0.0000 0.0000 -6.4803 0.0339 0.0107 -6.3553 0.0152 -0.2757 10.3237 0.0037 0.0308 -6.1367 -0.1228 -0.0607 
